<svg width="425" height="283" viewBox="0 0 425 283" fill="none" xmlns="http://www.w3.org/2000/svg">
<path d="M28 0H425V224H28V0Z" fill="#FAF7F7"/>
<ellipse cx="219" cy="88" rx="94" ry="65" fill="#D9D9D9"/>
<line x1="170.656" y1="149.637" x2="282.656" y2="43.6368" stroke="black"/>
<line x1="171.371" y1="33.6644" x2="267.371" y2="139.664" stroke="black"/>
<path d="M70.995 169.392V164.091H98.8473V169.392H88.0575V199H81.7848V169.392H70.995ZM110.114 183.659V199H103.944V164.091H109.978V177.267H110.285C110.898 175.79 111.847 174.625 113.131 173.773C114.427 172.909 116.075 172.477 118.075 172.477C119.893 172.477 121.478 172.858 122.83 173.619C124.183 174.381 125.228 175.494 125.967 176.96C126.717 178.426 127.092 180.216 127.092 182.33V199H120.921V183.284C120.921 181.523 120.467 180.153 119.558 179.176C118.66 178.187 117.398 177.693 115.773 177.693C114.683 177.693 113.705 177.932 112.842 178.409C111.989 178.875 111.319 179.551 110.83 180.438C110.353 181.324 110.114 182.398 110.114 183.659ZM150.069 187.989V172.818H156.239V199H150.256V194.347H149.984C149.393 195.812 148.421 197.011 147.069 197.943C145.728 198.875 144.075 199.341 142.109 199.341C140.393 199.341 138.876 198.96 137.558 198.199C136.251 197.426 135.228 196.307 134.489 194.841C133.751 193.364 133.381 191.58 133.381 189.489V172.818H139.552V188.534C139.552 190.193 140.006 191.511 140.915 192.489C141.825 193.466 143.018 193.955 144.495 193.955C145.404 193.955 146.285 193.733 147.137 193.29C147.989 192.847 148.688 192.188 149.234 191.312C149.79 190.426 150.069 189.318 150.069 187.989ZM162.585 199V172.818H168.482V177.267H168.789C169.335 175.767 170.238 174.597 171.499 173.756C172.761 172.903 174.266 172.477 176.016 172.477C177.789 172.477 179.283 172.909 180.499 173.773C181.727 174.625 182.59 175.79 183.09 177.267H183.363C183.942 175.812 184.92 174.653 186.295 173.79C187.681 172.915 189.323 172.477 191.221 172.477C193.63 172.477 195.596 173.239 197.119 174.761C198.641 176.284 199.403 178.506 199.403 181.426V199H193.215V182.381C193.215 180.756 192.783 179.568 191.92 178.818C191.056 178.057 189.999 177.676 188.749 177.676C187.261 177.676 186.096 178.142 185.255 179.074C184.425 179.994 184.011 181.193 184.011 182.67V199H177.96V182.125C177.96 180.773 177.55 179.693 176.732 178.886C175.925 178.08 174.869 177.676 173.562 177.676C172.675 177.676 171.869 177.903 171.141 178.358C170.414 178.801 169.835 179.432 169.403 180.25C168.971 181.057 168.755 182 168.755 183.08V199H162.585ZM205.935 199V164.091H212.106V177.148H212.362C212.68 176.511 213.129 175.835 213.708 175.119C214.288 174.392 215.072 173.773 216.06 173.261C217.049 172.739 218.31 172.477 219.844 172.477C221.867 172.477 223.691 172.994 225.316 174.028C226.952 175.051 228.248 176.568 229.202 178.58C230.168 180.58 230.651 183.034 230.651 185.943C230.651 188.818 230.18 191.261 229.237 193.273C228.293 195.284 227.009 196.818 225.384 197.875C223.759 198.932 221.918 199.46 219.862 199.46C218.362 199.46 217.117 199.21 216.129 198.71C215.14 198.21 214.344 197.608 213.742 196.903C213.151 196.187 212.691 195.511 212.362 194.875H212.004V199H205.935ZM211.987 185.909C211.987 187.602 212.225 189.085 212.702 190.358C213.191 191.631 213.89 192.625 214.799 193.341C215.719 194.045 216.833 194.398 218.14 194.398C219.504 194.398 220.646 194.034 221.566 193.307C222.487 192.568 223.18 191.562 223.646 190.29C224.123 189.006 224.362 187.545 224.362 185.909C224.362 184.284 224.129 182.841 223.663 181.58C223.197 180.318 222.504 179.33 221.583 178.614C220.663 177.898 219.515 177.54 218.14 177.54C216.822 177.54 215.702 177.886 214.782 178.58C213.862 179.273 213.163 180.244 212.685 181.494C212.219 182.744 211.987 184.216 211.987 185.909ZM242.067 183.659V199H235.897V172.818H241.795V177.267H242.102C242.704 175.801 243.664 174.636 244.982 173.773C246.312 172.909 247.954 172.477 249.908 172.477C251.715 172.477 253.289 172.864 254.63 173.636C255.982 174.409 257.028 175.528 257.766 176.994C258.516 178.46 258.886 180.239 258.874 182.33V199H252.704V183.284C252.704 181.534 252.249 180.165 251.34 179.176C250.442 178.187 249.198 177.693 247.607 177.693C246.528 177.693 245.567 177.932 244.727 178.409C243.897 178.875 243.244 179.551 242.766 180.438C242.3 181.324 242.067 182.398 242.067 183.659ZM272.681 199.528C271.022 199.528 269.528 199.233 268.198 198.642C266.88 198.04 265.835 197.153 265.062 195.983C264.3 194.812 263.92 193.369 263.92 191.653C263.92 190.176 264.192 188.955 264.738 187.989C265.283 187.023 266.028 186.25 266.971 185.67C267.914 185.091 268.977 184.653 270.158 184.358C271.352 184.051 272.585 183.83 273.857 183.693C275.391 183.534 276.636 183.392 277.59 183.267C278.545 183.131 279.238 182.926 279.67 182.653C280.113 182.369 280.335 181.932 280.335 181.341V181.239C280.335 179.955 279.954 178.96 279.192 178.256C278.431 177.551 277.335 177.199 275.903 177.199C274.391 177.199 273.192 177.528 272.306 178.188C271.431 178.847 270.84 179.625 270.533 180.523L264.772 179.705C265.227 178.114 265.977 176.784 267.022 175.716C268.067 174.636 269.346 173.83 270.857 173.295C272.369 172.75 274.039 172.477 275.869 172.477C277.13 172.477 278.386 172.625 279.636 172.92C280.886 173.216 282.028 173.705 283.062 174.386C284.096 175.057 284.925 175.972 285.55 177.131C286.187 178.29 286.505 179.739 286.505 181.477V199H280.573V195.403H280.369C279.994 196.131 279.465 196.812 278.783 197.449C278.113 198.074 277.266 198.58 276.244 198.966C275.232 199.341 274.045 199.528 272.681 199.528ZM274.283 194.994C275.522 194.994 276.596 194.75 277.505 194.261C278.414 193.761 279.113 193.102 279.602 192.284C280.102 191.466 280.352 190.574 280.352 189.608V186.523C280.158 186.682 279.829 186.83 279.363 186.966C278.908 187.102 278.397 187.222 277.829 187.324C277.261 187.426 276.698 187.517 276.141 187.597C275.585 187.676 275.102 187.744 274.692 187.801C273.772 187.926 272.948 188.131 272.221 188.415C271.494 188.699 270.92 189.097 270.499 189.608C270.079 190.108 269.869 190.756 269.869 191.551C269.869 192.688 270.283 193.545 271.113 194.125C271.942 194.705 272.999 194.994 274.283 194.994ZM292.71 199V172.818H298.88V199H292.71ZM295.812 169.102C294.835 169.102 293.994 168.778 293.289 168.131C292.585 167.472 292.232 166.682 292.232 165.761C292.232 164.83 292.585 164.04 293.289 163.392C293.994 162.733 294.835 162.403 295.812 162.403C296.8 162.403 297.641 162.733 298.335 163.392C299.039 164.04 299.391 164.83 299.391 165.761C299.391 166.682 299.039 167.472 298.335 168.131C297.641 168.778 296.8 169.102 295.812 169.102ZM311.396 164.091V199H305.225V164.091H311.396ZM338.434 179.739L332.809 180.352C332.65 179.784 332.371 179.25 331.974 178.75C331.587 178.25 331.065 177.847 330.406 177.54C329.746 177.233 328.94 177.08 327.985 177.08C326.701 177.08 325.621 177.358 324.746 177.915C323.883 178.472 323.457 179.193 323.468 180.08C323.457 180.841 323.735 181.46 324.303 181.938C324.883 182.415 325.837 182.807 327.167 183.114L331.633 184.068C334.11 184.602 335.951 185.449 337.156 186.608C338.371 187.767 338.985 189.284 338.996 191.159C338.985 192.807 338.502 194.261 337.548 195.523C336.604 196.773 335.292 197.75 333.61 198.455C331.928 199.159 329.996 199.511 327.815 199.511C324.61 199.511 322.031 198.841 320.076 197.5C318.121 196.148 316.957 194.267 316.582 191.858L322.599 191.278C322.871 192.46 323.451 193.352 324.337 193.955C325.224 194.557 326.377 194.858 327.798 194.858C329.263 194.858 330.44 194.557 331.326 193.955C332.224 193.352 332.673 192.608 332.673 191.722C332.673 190.972 332.383 190.352 331.803 189.864C331.235 189.375 330.349 189 329.144 188.739L324.678 187.801C322.167 187.278 320.309 186.398 319.104 185.159C317.9 183.909 317.303 182.33 317.315 180.42C317.303 178.807 317.741 177.409 318.627 176.227C319.525 175.034 320.769 174.114 322.36 173.466C323.962 172.807 325.809 172.477 327.9 172.477C330.968 172.477 333.383 173.131 335.144 174.438C336.917 175.744 338.013 177.511 338.434 179.739Z" fill="#141313"/>
</svg>
